# xmcd CD database file
# Copyright (C) 1993-1998 Ti Kan
# 
# Track frame offsets:
#     150
#     17152
#     35920
#     56667
#     80742
#     107825
#     127537
#     146437
#     163637
#     180172
# 
# Disc length: 2738 seconds
# 
# Revision: 1
# Processed by: cddbd v1.4b41PL1 Copyright (c) Steve Scherf et al.
# Submitted via: DiscPlay 4.0.4
# 
DISCID=7c0ab00a
DTITLE=Gilberto Gil - Gilberto Gil - Ao Vivo em T quio
DYEAR=1900
DGENRE=
TTITLE0=Nos Barracos da Cidade
TTITLE1=Vamos Fugir
TTITLE2=Aquele Abra o
TTITLE3=Oriente
TTITLE4=Flora
TTITLE5=Sabar  Miolo
TTITLE6=Bandaum
TTITLE7=Touche Pas a Mon Pote
TTITLE8=Toda Menina Baiana
TTITLE9=N o Chore Mais
EXTD=
EXTT0=
EXTT1=
EXTT2=
EXTT3=
EXTT4=
EXTT5=
EXTT6=
EXTT7=
EXTT8=
EXTT9=
PLAYORDER=
